<mxfile host="app.diagrams.net" modified="2024-03-02T07:10:05.486Z" agent="Mozilla/5.0 (Macintosh; Intel Mac OS X 10_15_7) AppleWebKit/537.36 (KHTML, like Gecko) Chrome/122.0.0.0 Safari/537.36" etag="cpGdBuL6TBA0Zwd8wFgS" version="23.1.8" type="device">
  <diagram name="Page-1" id="dXqrgspqBH_7uR5wYW7A">
    <mxGraphModel dx="734" dy="492" grid="1" gridSize="10" guides="1" tooltips="1" connect="1" arrows="1" fold="1" page="1" pageScale="1" pageWidth="850" pageHeight="1100" math="0" shadow="0">
      <root>
        <mxCell id="0" />
        <mxCell id="1" parent="0" />
        <mxCell id="2MvyOYAqEBYD22P4mAEp-1" value="customer" style="swimlane;childLayout=stackLayout;horizontal=1;startSize=50;horizontalStack=0;rounded=1;fontSize=14;fontStyle=0;strokeWidth=2;resizeParent=0;resizeLast=1;shadow=0;dashed=0;align=center;arcSize=4;whiteSpace=wrap;html=1;" vertex="1" parent="1">
          <mxGeometry x="100" y="120" width="160" height="120" as="geometry" />
        </mxCell>
        <mxCell id="2MvyOYAqEBYD22P4mAEp-2" value="+ email [RU]&lt;br&gt;+ name [RC]&lt;br&gt;+ address [RC]" style="align=left;strokeColor=none;fillColor=none;spacingLeft=4;fontSize=12;verticalAlign=top;resizable=0;rotatable=0;part=1;html=1;" vertex="1" parent="2MvyOYAqEBYD22P4mAEp-1">
          <mxGeometry y="50" width="160" height="70" as="geometry" />
        </mxCell>
        <mxCell id="2MvyOYAqEBYD22P4mAEp-3" value="product" style="swimlane;childLayout=stackLayout;horizontal=1;startSize=50;horizontalStack=0;rounded=1;fontSize=14;fontStyle=0;strokeWidth=2;resizeParent=0;resizeLast=1;shadow=0;dashed=0;align=center;arcSize=4;whiteSpace=wrap;html=1;" vertex="1" parent="1">
          <mxGeometry x="565" y="120" width="160" height="120" as="geometry" />
        </mxCell>
        <mxCell id="2MvyOYAqEBYD22P4mAEp-4" value="+ inventory number [RU]&amp;nbsp;&lt;br&gt;+ product name [R]&lt;br&gt;+ product description [R]&lt;br&gt;+ product price [R]" style="align=left;strokeColor=none;fillColor=none;spacingLeft=4;fontSize=12;verticalAlign=top;resizable=0;rotatable=0;part=1;html=1;" vertex="1" parent="2MvyOYAqEBYD22P4mAEp-3">
          <mxGeometry y="50" width="160" height="70" as="geometry" />
        </mxCell>
        <mxCell id="2MvyOYAqEBYD22P4mAEp-9" style="edgeStyle=orthogonalEdgeStyle;rounded=0;orthogonalLoop=1;jettySize=auto;html=1;entryX=0.5;entryY=1;entryDx=0;entryDy=0;endArrow=ERmandOne;endFill=0;startArrow=ERzeroToMany;startFill=0;" edge="1" parent="1" source="2MvyOYAqEBYD22P4mAEp-5" target="2MvyOYAqEBYD22P4mAEp-2">
          <mxGeometry relative="1" as="geometry" />
        </mxCell>
        <mxCell id="2MvyOYAqEBYD22P4mAEp-12" value="&lt;font style=&quot;font-size: 14px;&quot;&gt;places /&lt;br&gt;placed by&lt;/font&gt;" style="edgeLabel;html=1;align=center;verticalAlign=middle;resizable=0;points=[];" vertex="1" connectable="0" parent="2MvyOYAqEBYD22P4mAEp-9">
          <mxGeometry relative="1" as="geometry">
            <mxPoint as="offset" />
          </mxGeometry>
        </mxCell>
        <mxCell id="2MvyOYAqEBYD22P4mAEp-5" value="order" style="swimlane;childLayout=stackLayout;horizontal=1;startSize=50;horizontalStack=0;rounded=1;fontSize=14;fontStyle=0;strokeWidth=2;resizeParent=0;resizeLast=1;shadow=0;dashed=0;align=center;arcSize=4;whiteSpace=wrap;html=1;" vertex="1" parent="1">
          <mxGeometry x="100" y="370" width="160" height="140" as="geometry" />
        </mxCell>
        <mxCell id="2MvyOYAqEBYD22P4mAEp-6" value="+ order number [RU]&lt;br&gt;+ date [R]&lt;br&gt;+ subtotal [R]&lt;br&gt;+ tax [R]&lt;br&gt;+ total [D]&lt;br&gt;&lt;div&gt;&lt;br&gt;&lt;/div&gt;" style="align=left;strokeColor=none;fillColor=none;spacingLeft=4;fontSize=12;verticalAlign=top;resizable=0;rotatable=0;part=1;html=1;" vertex="1" parent="2MvyOYAqEBYD22P4mAEp-5">
          <mxGeometry y="50" width="160" height="90" as="geometry" />
        </mxCell>
        <mxCell id="2MvyOYAqEBYD22P4mAEp-7" value="order line item" style="swimlane;childLayout=stackLayout;horizontal=1;startSize=50;horizontalStack=0;rounded=1;fontSize=14;fontStyle=0;strokeWidth=2;resizeParent=0;resizeLast=1;shadow=0;dashed=0;align=center;arcSize=4;whiteSpace=wrap;html=1;" vertex="1" parent="1">
          <mxGeometry x="540" y="370" width="210" height="140" as="geometry" />
        </mxCell>
        <mxCell id="2MvyOYAqEBYD22P4mAEp-8" value="+ item product inventory number [R]&lt;br&gt;+ item product price [R]&lt;br&gt;+ item quantity [R]&lt;br&gt;+ item extended price [D]" style="align=left;strokeColor=none;fillColor=none;spacingLeft=4;fontSize=12;verticalAlign=top;resizable=0;rotatable=0;part=1;html=1;" vertex="1" parent="2MvyOYAqEBYD22P4mAEp-7">
          <mxGeometry y="50" width="210" height="90" as="geometry" />
        </mxCell>
        <mxCell id="2MvyOYAqEBYD22P4mAEp-10" style="edgeStyle=orthogonalEdgeStyle;rounded=0;orthogonalLoop=1;jettySize=auto;html=1;entryX=0;entryY=0.5;entryDx=0;entryDy=0;endArrow=ERoneToMany;endFill=0;startArrow=ERmandOne;startFill=0;" edge="1" parent="1" source="2MvyOYAqEBYD22P4mAEp-6" target="2MvyOYAqEBYD22P4mAEp-8">
          <mxGeometry relative="1" as="geometry" />
        </mxCell>
        <mxCell id="2MvyOYAqEBYD22P4mAEp-13" value="&lt;font style=&quot;font-size: 14px;&quot;&gt;contains /&lt;br&gt;belongs to&lt;br&gt;&lt;/font&gt;" style="edgeLabel;html=1;align=center;verticalAlign=middle;resizable=0;points=[];" vertex="1" connectable="0" parent="2MvyOYAqEBYD22P4mAEp-10">
          <mxGeometry x="0.0143" y="-1" relative="1" as="geometry">
            <mxPoint as="offset" />
          </mxGeometry>
        </mxCell>
        <mxCell id="2MvyOYAqEBYD22P4mAEp-11" style="edgeStyle=orthogonalEdgeStyle;rounded=0;orthogonalLoop=1;jettySize=auto;html=1;entryX=0.5;entryY=1;entryDx=0;entryDy=0;endArrow=ERmandOne;endFill=0;startArrow=ERzeroToMany;startFill=0;" edge="1" parent="1" source="2MvyOYAqEBYD22P4mAEp-7" target="2MvyOYAqEBYD22P4mAEp-4">
          <mxGeometry relative="1" as="geometry">
            <Array as="points">
              <mxPoint x="645" y="270" />
              <mxPoint x="645" y="270" />
            </Array>
          </mxGeometry>
        </mxCell>
        <mxCell id="2MvyOYAqEBYD22P4mAEp-15" value="&lt;font style=&quot;font-size: 14px;&quot;&gt;contains /&lt;br style=&quot;border-color: var(--border-color);&quot;&gt;appears&lt;/font&gt;" style="edgeLabel;html=1;align=center;verticalAlign=middle;resizable=0;points=[];" vertex="1" connectable="0" parent="2MvyOYAqEBYD22P4mAEp-11">
          <mxGeometry x="0.0308" relative="1" as="geometry">
            <mxPoint as="offset" />
          </mxGeometry>
        </mxCell>
        <mxCell id="2MvyOYAqEBYD22P4mAEp-16" value="&lt;font size=&quot;1&quot; style=&quot;&quot;&gt;&lt;b style=&quot;font-size: 24px;&quot;&gt;vchand03&lt;/b&gt;&lt;/font&gt;" style="text;html=1;align=center;verticalAlign=middle;resizable=0;points=[];autosize=1;strokeColor=none;fillColor=none;" vertex="1" parent="1">
          <mxGeometry x="350" y="260" width="130" height="40" as="geometry" />
        </mxCell>
      </root>
    </mxGraphModel>
  </diagram>
</mxfile>
